#!OML:ASF E:\basketball\basketball\Project 1\Capture day 1\Session 1\Subject.ASF
:FULLY-SPECIFIED
:DEGREES
136
root -9.81273 13.8007 -11.7696 202.065 31.7027 193.035
lowerback 26.1964 1.27829 2.65922
upperback 11.4243 4.3064 0.00245053
thorax -1.6428 3.02791 -2.67609
lowerneck 4.92922 -22.2699 -37.7287
upperneck -30.7254 -32.4504 63.8002
head 17.0354 -19.5481 27.8022
rclavicle -6.44062e-014 1.90833e-014
rhumerus -1.49804 3.59698 -88.6472
rradius 28.0011
rwrist 20.9793
rhand -33.3967 32.1856
rfingers 7.12502
rthumb -6.59714 2.30834
lclavicle -6.44062e-014 1.90833e-014
lhumerus 1.33535 11.6622 80.7894
lradius 101.881
lwrist 186.254
lhand -23.3363 -33.6354
lfingers 7.12502
lthumb 3.11828 -3.67842
rfemur 26.4077 -8.08625 10.8587
rtibia 42.5589
rfoot -4.46476 -6.24458
rtoes -43.7714
lfemur -73.4779 10.4508 -18.0825
ltibia 56.2996
lfoot 5.34841 -4.24472
ltoes 8.86342
137
root -9.53624 13.8585 -12.2286 201.58 32.266 192.365
lowerback 26.0867 1.37066 1.64779
upperback 11.1595 4.09396 -0.268508
thorax -1.93999 2.85849 -2.34826
lowerneck 4.59885 -22.2254 -37.7355
upperneck -29.921 -32.5522 63.5406
head 17.3601 -19.5214 27.7265
rclavicle 2.38542e-014 5.96354e-015
rhumerus -4.30603 4.05372 -87.806
rradius 29.141
rwrist 19.0798
rhand -31.0026 32.9483
rfingers 7.12502
rthumb -4.28567 3.01171
lclavicle 2.38542e-014 5.96354e-015
lhumerus -0.434715 14.1795 79.7119
lradius 104.703
lwrist 188.563
lhand -25.0521 -34.7296
lfingers 7.12502
lthumb 1.46124 -4.75488
rfemur 23.6882 -8.81283 9.20017
rtibia 49.9856
rfoot -5.10322 -5.94672
rtoes -44.0229
lfemur -74.826 10.3959 -17.8885
ltibia 62.1437
lfoot 2.49741 -4.78269
ltoes 2.65906
138
root -9.27864 13.7013 -12.5814 200.176 32.7663 190.797
lowerback 26.4891 1.5027 -0.141931
upperback 11.169 3.84416 -0.63775
thorax -2.20072 2.69397 -1.69064
lowerneck 4.18375 -22.254 -37.6797
upperneck -29.5773 -32.6048 63.5267
head 17.6634 -19.5063 27.7977
rclavicle 5.56597e-015 -3.81667e-014
rhumerus -6.72743 3.95613 -86.9093
rradius 30.2863
rwrist 17.3093
rhand -32.1476 31.802
rfingers 7.12502
rthumb -5.39125 1.89053
lclavicle 5.56597e-015 -3.81667e-014
lhumerus -1.70206 16.9165 78.9787
lradius 107.428
lwrist 190.862
lhand -26.9363 -35.9291
lfingers 7.12502
lthumb -0.358523 -5.94969
rfemur 21.3954 -9.28988 6.73173
rtibia 57.8111
rfoot -6.8387 -4.83139
rtoes -40.4787
lfemur -75.092 9.45029 -18.2555
ltibia 66.7317
lfoot 0.956122 -2.89768
ltoes 0.0782383
139
root -9.00585 13.5863 -12.9261 198.287 33.1524 188.688
lowerback 27.0768 1.66512 -2.28623
upperback 11.3407 3.58941 -1.13859
thorax -2.34748 2.54956 -0.971864
lowerneck 4.08329 -22.1962 -37.5447
upperneck -29.753 -32.5161 63.719
head 17.8617 -19.5803 28.373
rclavicle -4.77083e-014 2.38542e-015
rhumerus -8.85371 2.54446 -86.2279
rradius 31.19
rwrist 16.0081
rhand -27.4435 33.0477
rfingers 7.12502
rthumb -0.848467 3.06968
lclavicle -4.77083e-014 2.38542e-015
lhumerus -2.78919 19.3427 78.0755
lradius 110.013
lwrist 193.358
lhand -28.1689 -36.9483
lfingers 7.12502
lthumb -1.54901 -6.97414
rfemur 19.0501 -9.78903 3.96328
rtibia 65.3713
rfoot -7.91687 -3.1007
rtoes -37.6001
lfemur -74.5713 9.23895 -20.0635
ltibia 70.3263
lfoot -1.06959 -2.42315
ltoes -1.0879
140
root -8.71818 13.6268 -13.3114 195.771 33.8217 186.606
lowerback 28.4423 2.04473 -4.73161
upperback 11.6615 3.56576 -1.45725
thorax -2.67492 2.53898 0.0129512
lowerneck 4.36809 -22.1647 -37.5242
upperneck -30.4454 -32.3617 63.9631
head 17.6574 -19.6249 28.759
rclavicle 6.75868e-014 -4.29375e-014
rhumerus -10.8408 0.389124 -85.3522
rradius 31.8835
rwrist 14.5049
rhand -26.6572 33.3635
rfingers 7.12502
rthumb -0.0889664 3.38376
lclavicle 6.75868e-014 -4.29375e-014
lhumerus -4.1031 21.8193 77.1407
lradius 112.337
lwrist 196.086
lhand -28.5842 -37.3658
lfingers 7.12502
lthumb -1.95016 -7.39493
rfemur 17.0808 -10.012 1.17898
rtibia 72.1264
rfoot -9.11941 -1.49555
rtoes -37.659
lfemur -71.7418 8.82785 -21.4578
ltibia 72.4491
lfoot -4.01318 -1.00924
ltoes -1.75846
141
root -8.42454 13.6934 -13.6828 194.22 34.9307 185.074
lowerback 28.9567 2.8362 -7.14868
upperback 11.8767 4.01423 -1.53286
thorax -2.74556 2.72114 1.14086
lowerneck 4.94514 -21.8966 -37.8445
upperneck -31.2369 -32.1336 64.1387
head 17.6211 -19.8179 29.889
rclavicle 1.35174e-014 -8.74653e-015
rhumerus -12.9329 -2.11353 -84.1879
rradius 32.7301
rwrist 11.956
rhand -29.7811 32.7648
rfingers 7.12502
rthumb -3.10602 2.80765
lclavicle 1.35174e-014 -8.74653e-015
lhumerus -5.56596 24.1706 76.2615
lradius 114.286
lwrist 198.333
lhand -26.6394 -35.1069
lfingers 7.12502
lthumb -0.0718561 -5.12717
rfemur 13.9411 -9.94524 -0.628888
rtibia 78.3187
rfoot -9.85831 0.0867614
rtoes -36.6284
lfemur -69.3085 9.79697 -22.8331
ltibia 73.9642
lfoot -7.03924 -0.338788
ltoes -3.59632
142
root -8.15286 13.7397 -14.0466 193.27 36.0836 183.999
lowerback 29.0017 3.49505 -8.8311
upperback 12.0315 4.46701 -1.65433
thorax -2.65701 2.90765 1.8171
lowerneck 5.36 -21.608 -37.9356
upperneck -31.7037 -31.7132 64.0378
head 17.2412 -19.7683 30.7547
rclavicle 6.20208e-014 -2.3059e-014
rhumerus -15.1334 -4.59891 -83.0585
rradius 33.5394
rwrist 9.26208
rhand -31.0625 33.1969
rfingers 7.12502
rthumb -4.34351 3.26144
lclavicle 6.20208e-014 -2.3059e-014
lhumerus -7.16108 26.5335 75.0401
lradius 116.047
lwrist 199.037
lhand -22.5659 -31.6558
lfingers 7.12502
lthumb 3.86228 -1.71102
rfemur 10.0724 -9.86984 -1.79187
rtibia 84.1663
rfoot -10.4525 1.90989
rtoes -31.9653
lfemur -66.9273 10.8001 -23.67
ltibia 74.916
lfoot -10.1006 -0.0634815
ltoes -5.05233
143
root -7.90278 13.7654 -14.4148 192.983 37.111 182.978
lowerback 28.2233 3.77038 -9.94892
upperback 12.0722 4.59471 -1.92456
thorax -2.2755 2.92101 2.15981
lowerneck 5.35975 -21.609 -37.8831
upperneck -31.7777 -31.4698 63.8678
head 16.7226 -19.4969 30.3473
rclavicle -2.38542e-014 7.95139e-016
rhumerus -17.1413 -6.71512 -81.9567
rradius 34.005
rwrist 6.83026
rhand -34.3731 33.7356
rfingers 7.12502
rthumb -7.5397 3.88996
lclavicle -2.38542e-014 7.95139e-016
lhumerus -8.94451 29.8509 73.2861
lradius 117.767
lwrist 199.073
lhand -21.1797 -31.913
lfingers 7.12502
lthumb 5.20084 -1.99686
rfemur 5.54927 -10.389 -2.9681
rtibia 89.6662
rfoot -11.1987 3.25635
rtoes -29.2511
lfemur -65.1378 11.1731 -24.2233
ltibia 75.678
lfoot -13.0631 0.00490379
ltoes -4.75767
144
root -7.70274 13.7932 -14.7872 193.157 38.4416 182.324
lowerback 27.5419 3.89201 -9.76611
upperback 11.9681 4.80906 -2.71764
thorax -2.02832 3.04019 1.16518
lowerneck 4.97393 -21.9497 -37.4202
upperneck -31.3068 -31.7569 63.8857
head 16.6942 -19.3941 29.1347
rclavicle 1.98785e-014 -7.87187e-014
rhumerus -18.9772 -9.34502 -81.2215
rradius 34.2456
rwrist 5.13142
rhand -37.3029 34.3838
rfingers 7.12502
rthumb -10.3669 4.6593
lclavicle 1.98785e-014 -7.87187e-014
lhumerus -10.3199 33.6452 71.0094
lradius 118.904
lwrist 200.903
lhand -23.9598 -34.0062
lfingers 7.12502
lthumb 2.5162 -4.04134
rfemur 0.172289 -10.821 -3.78096
rtibia 94.8812
rfoot -11.9709 4.27394
rtoes -28.6094
lfemur -63.67 11.7057 -24.7448
ltibia 76.2572
lfoot -15.8843 0.0530293
ltoes -3.77704
145
root -7.42132 13.863 -15.1451 192.931 39.2672 182.373
lowerback 27.6325 4.07474 -9.5322
upperback 11.9228 5.08931 -3.31781
thorax -2.07496 3.2191 0.284632
lowerneck 5.0688 -21.9482 -36.3407
upperneck -31.0941 -31.2818 63.5947
head 15.7717 -19.0086 28.7169
rclavicle -2.62396e-014 1.19271e-014
rhumerus -20.991 -11.7689 -80.8427
rradius 34.4476
rwrist 4.68542
rhand -34.4355 32.1097
rfingers 7.12502
rthumb -7.59989 2.26621
lclavicle -2.62396e-014 1.19271e-014
lhumerus -11.9933 38.0195 67.9351
lradius 119.098
lwrist 205.02
lhand -28.0905 -34.6928
lfingers 7.12502
lthumb -1.47332 -4.71816
rfemur -3.65169 -11.1217 -2.65365
rtibia 98.8211
rfoot -12.6607 4.41515
rtoes -25.8514
lfemur -60.7563 12.8372 -24.3317
ltibia 76.3994
lfoot -18.7785 -0.368986
ltoes -4.09614
146
root -7.25423 13.8971 -15.5122 194.682 40.6424 183.2
lowerback 26.4379 3.8765 -8.77406
upperback 11.2648 4.83987 -3.33369
thorax -2.23915 3.03444 -0.0254336
lowerneck 5.14234 -21.5008 -37.2539
upperneck -29.7252 -31.1922 62.5766
head 15.8002 -18.8159 28.5002
rclavicle 7.15625e-015 -2.54444e-014
rhumerus -23.1164 -11.7094 -79.3109
rradius 34.5766
rwrist 4.60709
rhand -34.8718 30.952
rfingers 7.12502
rthumb -8.02101 1.12416
lclavicle 7.15625e-015 -2.54444e-014
lhumerus -16.2438 43.1913 64.2002
lradius 118.525
lwrist 212.08
lhand -28.8492 -35.8601
lfingers 7.12502
lthumb -2.20611 -5.89172
rfemur -10.5504 -11.1736 -0.835353
rtibia 102.574
rfoot -12.7038 4.8692
rtoes -25.2806
lfemur -60.2046 13.5502 -24.2512
ltibia 76.5503
lfoot -20.9431 0.559373
ltoes -4.43938
147
root -6.96568 14.0014 -15.8628 194.529 41.1943 183.343
lowerback 26.3775 4.04447 -9.33067
upperback 11.2307 4.90207 -3.01846
thorax -2.30694 3.02621 0.610342
lowerneck 5.15925 -21.1733 -37.6633
upperneck -29.4507 -30.6985 61.991
head 15.3533 -18.4785 28.693
rclavicle 1.03368e-014 -3.65764e-014
rhumerus -24.9719 -12.4227 -77.7348
rradius 34.8258
rwrist 4.80003
rhand -34.3289 30.1476
rfingers 7.12502
rthumb -7.49705 0.300434
lclavicle 1.03368e-014 -3.65764e-014
lhumerus -19.862 47.169 60.4661
lradius 117.116
lwrist 218.811
lhand -30.0636 -37.4585
lfingers 7.12502
lthumb -3.37887 -7.50551
rfemur -14.1917 -11.2597 1.66027
rtibia 104.683
rfoot -13.2776 4.3073
rtoes -24.6998
lfemur -57.0916 14.5711 -23.8222
ltibia 76.2098
lfoot -23.0459 0.351233
ltoes -5.41952
148
root -6.73699 14.0799 -16.2157 194.591 41.8194 182.953
lowerback 25.9383 3.9269 -10.002
upperback 11.0709 4.55361 -2.57275
thorax -2.32136 2.78774 1.59236
lowerneck 4.84738 -20.9108 -39.0151
upperneck -28.9971 -30.6286 61.4618
head 15.627 -18.3461 28.847
rclavicle -1.59028e-015 1.19271e-014
rhumerus -26.7223 -11.6166 -75.7479
rradius 35.4931
rwrist 4.44557
rhand -33.9875 29.5669
rfingers 7.12502
rthumb -7.16752 -0.291765
lclavicle -1.59028e-015 1.19271e-014
lhumerus -24.843 51.1116 56.1176
lradius 115.56
lwrist 224.081
lhand -31.5775 -39.3936
lfingers 7.12502
lthumb -4.84078 -9.46894
rfemur -19.1363 -11.5654 3.43674
rtibia 106.642
rfoot -13.8374 4.53241
rtoes -24.4567
lfemur -55.0335 14.9434 -24.2123
ltibia 75.8924
lfoot -24.5088 0.721683
ltoes -6.20705
